<svg width="176" height="32" viewBox="0 0 176 32" fill="none" xmlns="http://www.w3.org/2000/svg">
<path d="M53.016 25V18.448H56.784L59.76 25H63.12L59.784 17.8C61.848 16.96 62.952 15.28 62.952 12.928C62.952 9.472 60.624 7.456 56.64 7.456H49.944V25H53.016ZM53.016 10.192H56.64C58.584 10.192 59.736 11.176 59.736 12.928C59.736 14.704 58.584 15.736 56.64 15.736H53.016V10.192ZM70.0504 25.312C73.1464 25.312 75.3064 23.752 75.8104 21.16H73.0984C72.7624 22.288 71.7064 22.912 70.0984 22.912C68.1544 22.912 67.0504 21.856 66.8344 19.768L75.7624 19.744V18.856C75.7624 15.16 73.5064 12.784 69.9544 12.784C66.4744 12.784 64.0504 15.352 64.0504 19.072C64.0504 22.744 66.5224 25.312 70.0504 25.312ZM69.9784 15.184C71.7304 15.184 72.8584 16.264 72.8584 17.896H66.9064C67.1944 16.12 68.2504 15.184 69.9784 15.184ZM81.0338 25V18.28C81.0338 16.36 82.1618 15.448 83.5538 15.448C84.9458 15.448 85.8338 16.336 85.8338 17.992V25H88.7618V18.28C88.7618 16.336 89.8418 15.424 91.2578 15.424C92.6498 15.424 93.5618 16.312 93.5618 18.016V25H96.4658V17.248C96.4658 14.512 94.8818 12.784 92.0018 12.784C90.2018 12.784 88.8098 13.672 88.2098 15.04C87.5858 13.672 86.3378 12.784 84.5378 12.784C82.8338 12.784 81.6338 13.552 81.0338 14.536L80.7938 13.144H78.1058V25H81.0338ZM98.6441 19.048C98.6441 22.744 101.308 25.288 104.98 25.288C108.652 25.288 111.316 22.744 111.316 19.048C111.316 15.352 108.652 12.808 104.98 12.808C101.308 12.808 98.6441 15.352 98.6441 19.048ZM101.572 19.048C101.572 16.888 102.964 15.424 104.98 15.424C106.996 15.424 108.388 16.888 108.388 19.048C108.388 21.208 106.996 22.672 104.98 22.672C102.964 22.672 101.572 21.208 101.572 19.048ZM116.565 25V18.616C116.565 16.696 117.669 15.448 119.469 15.448C120.981 15.448 121.965 16.408 121.965 18.4V25H124.893V17.704C124.893 14.632 123.357 12.784 120.381 12.784C118.773 12.784 117.333 13.48 116.589 14.68L116.349 13.144H113.637V25H116.565ZM131.802 25V15.592H134.106V13.144H131.802V9.448H128.874V13.144H126.594V15.592H128.874V25H131.802ZM139.384 25.312C141.232 25.312 142.84 24.472 143.344 23.248L143.56 25H146.128V17.8C146.128 14.512 144.16 12.784 140.968 12.784C137.752 12.784 135.64 14.464 135.64 17.032H138.136C138.136 15.784 139.096 15.064 140.824 15.064C142.312 15.064 143.272 15.712 143.272 17.32V17.584L139.72 17.848C136.912 18.064 135.328 19.432 135.328 21.616C135.328 23.848 136.864 25.312 139.384 25.312ZM140.344 23.104C139.024 23.104 138.304 22.576 138.304 21.496C138.304 20.536 139 19.936 140.824 19.768L143.296 19.576V20.2C143.296 22.024 142.144 23.104 140.344 23.104ZM153.876 25.312C155.676 25.312 157.212 24.52 157.932 23.152L158.124 25H160.812V7.144H157.908V14.656C157.164 13.48 155.7 12.784 154.044 12.784C150.468 12.784 148.308 15.424 148.308 19.12C148.308 22.792 150.444 25.312 153.876 25.312ZM154.524 22.624C152.484 22.624 151.236 21.136 151.236 19.024C151.236 16.912 152.484 15.4 154.524 15.4C156.564 15.4 157.884 16.888 157.884 19.024C157.884 21.16 156.564 22.624 154.524 22.624ZM167.392 25.312C169.24 25.312 170.848 24.472 171.352 23.248L171.568 25H174.136V17.8C174.136 14.512 172.168 12.784 168.976 12.784C165.76 12.784 163.648 14.464 163.648 17.032H166.144C166.144 15.784 167.104 15.064 168.832 15.064C170.32 15.064 171.28 15.712 171.28 17.32V17.584L167.728 17.848C164.92 18.064 163.336 19.432 163.336 21.616C163.336 23.848 164.872 25.312 167.392 25.312ZM168.352 23.104C167.032 23.104 166.312 22.576 166.312 21.496C166.312 20.536 167.008 19.936 168.832 19.768L171.304 19.576V20.2C171.304 22.024 170.152 23.104 168.352 23.104Z" fill="white"/>
<path fill-rule="evenodd" clip-rule="evenodd" d="M23.3172 16C23.7594 14.7489 24 13.4025 24 12C24 10.7877 23.8202 9.6173 23.4859 8.51414C27.137 9.62078 30.0521 12.4207 31.3172 16C30.0521 19.5793 27.137 22.3792 23.4859 23.4859C23.8202 22.3827 24 21.2123 24 20C24 18.5975 23.7594 17.2511 23.3172 16ZM16 23.3172C19.4097 22.112 22.112 19.4097 23.3172 16C22.112 12.5904 19.4097 9.88797 16 8.68283C17.2511 8.24062 18.5975 8 20 8C21.2123 8 22.3827 8.17979 23.4859 8.51414C22.3792 4.86299 19.5793 1.94793 16 0.682824C17.2511 0.240617 18.5975 0 20 0C26.6274 0 32 5.37258 32 12C32 13.4025 31.7594 14.7489 31.3172 16C31.7594 17.2511 32 18.5975 32 20C32 26.6274 26.6274 32 20 32C18.5975 32 17.2511 31.7594 16 31.3172C19.5793 30.0521 22.3792 27.137 23.4859 23.4859C22.3827 23.8202 21.2123 24 20 24C18.5975 24 17.2511 23.7594 16 23.3172ZM8.51414 23.4859C9.62078 27.137 12.4207 30.0521 16 31.3172C14.7489 31.7594 13.4025 32 12 32C5.37258 32 0 26.6274 0 20C0 18.5975 0.240617 17.2511 0.682824 16C1.94793 19.5793 4.86299 22.3792 8.51414 23.4859ZM8.68283 16C8.24062 14.7489 8 13.4025 8 12C8 10.7877 8.17979 9.6173 8.51414 8.51414C9.6173 8.17978 10.7877 8 12 8C13.4025 8 14.7489 8.24062 16 8.68283C12.5904 9.88797 9.88797 12.5904 8.68283 16ZM8.68283 16C9.88797 19.4097 12.5904 22.112 16 23.3172C14.7489 23.7594 13.4025 24 12 24C10.7877 24 9.6173 23.8202 8.51414 23.4859C8.17979 22.3827 8 21.2123 8 20C8 18.5975 8.24062 17.2511 8.68283 16ZM0.682824 16C1.94793 12.4207 4.86299 9.62078 8.51414 8.51414C9.62078 4.86299 12.4207 1.94793 16 0.682824C14.7489 0.240617 13.4025 0 12 0C5.37258 0 0 5.37258 0 12C0 13.4025 0.240617 14.7489 0.682824 16Z" fill="white"/>
</svg>
