<svg width="304" height="304" viewBox="0 0 304 304" fill="none" xmlns="http://www.w3.org/2000/svg">
<path d="M304 0H0V304H304V0Z" fill="white"/>
<path d="M28.9524 16H16V28.9524H28.9524V16Z" fill="black"/>
<path d="M41.9048 16H28.9524V28.9524H41.9048V16Z" fill="black"/>
<path d="M54.8571 16H41.9048V28.9524H54.8571V16Z" fill="black"/>
<path d="M67.8095 16H54.8571V28.9524H67.8095V16Z" fill="black"/>
<path d="M80.7619 16H67.8095V28.9524H80.7619V16Z" fill="black"/>
<path d="M93.7143 16H80.7619V28.9524H93.7143V16Z" fill="black"/>
<path d="M106.667 16H93.7143V28.9524H106.667V16Z" fill="black"/>
<path d="M132.571 16H119.619V28.9524H132.571V16Z" fill="black"/>
<path d="M210.286 16H197.333V28.9524H210.286V16Z" fill="black"/>
<path d="M223.238 16H210.286V28.9524H223.238V16Z" fill="black"/>
<path d="M236.19 16H223.238V28.9524H236.19V16Z" fill="black"/>
<path d="M249.143 16H236.19V28.9524H249.143V16Z" fill="black"/>
<path d="M262.095 16H249.143V28.9524H262.095V16Z" fill="black"/>
<path d="M275.048 16H262.095V28.9524H275.048V16Z" fill="black"/>
<path d="M288 16H275.048V28.9524H288V16Z" fill="black"/>
<path d="M28.9524 28.9524H16V41.9048H28.9524V28.9524Z" fill="black"/>
<path d="M106.667 28.9524H93.7143V41.9048H106.667V28.9524Z" fill="black"/>
<path d="M145.524 28.9524H132.571L132.571 41.9048H145.524V28.9524Z" fill="black"/>
<path d="M210.286 28.9524H197.333V41.9048H210.286V28.9524Z" fill="black"/>
<path d="M288 28.9524H275.048V41.9048H288V28.9524Z" fill="black"/>
<path d="M28.9524 41.9048H16V54.8571H28.9524V41.9048Z" fill="black"/>
<path d="M54.8571 41.9048H41.9048V54.8571H54.8571V41.9048Z" fill="black"/>
<path d="M67.8095 41.9048H54.8571V54.8571H67.8095V41.9048Z" fill="black"/>
<path d="M80.7619 41.9048H67.8095V54.8571H80.7619V41.9048Z" fill="black"/>
<path d="M106.667 41.9048H93.7143V54.8571H106.667V41.9048Z" fill="black"/>
<path d="M145.524 41.9048H132.571V54.8571H145.524V41.9048Z" fill="black"/>
<path d="M184.381 41.9048H171.429V54.8571H184.381V41.9048Z" fill="black"/>
<path d="M210.286 41.9048H197.333V54.8571H210.286V41.9048Z" fill="black"/>
<path d="M236.19 41.9048H223.238V54.8571H236.19V41.9048Z" fill="black"/>
<path d="M249.143 41.9048H236.19V54.8571H249.143V41.9048Z" fill="black"/>
<path d="M262.095 41.9048H249.143V54.8571H262.095V41.9048Z" fill="black"/>
<path d="M288 41.9048H275.048V54.8571H288V41.9048Z" fill="black"/>
<path d="M28.9524 54.8571H16V67.8095H28.9524V54.8571Z" fill="black"/>
<path d="M54.8571 54.8571H41.9048V67.8095H54.8571V54.8571Z" fill="black"/>
<path d="M67.8095 54.8571H54.8571V67.8095H67.8095V54.8571Z" fill="black"/>
<path d="M80.7619 54.8571H67.8095V67.8095H80.7619V54.8571Z" fill="black"/>
<path d="M106.667 54.8571H93.7143V67.8095H106.667V54.8571Z" fill="black"/>
<path d="M145.524 54.8571H132.571V67.8095H145.524V54.8571Z" fill="black"/>
<path d="M158.476 54.8571H145.524V67.8095H158.476V54.8571Z" fill="black"/>
<path d="M171.429 54.8571H158.476V67.8095H171.429V54.8571Z" fill="black"/>
<path d="M210.286 54.8571H197.333V67.8095H210.286V54.8571Z" fill="black"/>
<path d="M236.19 54.8571H223.238V67.8095H236.19V54.8571Z" fill="black"/>
<path d="M249.143 54.8571H236.19V67.8095H249.143V54.8571Z" fill="black"/>
<path d="M262.095 54.8571H249.143V67.8095H262.095V54.8571Z" fill="black"/>
<path d="M288 54.8571H275.048V67.8095H288V54.8571Z" fill="black"/>
<path d="M28.9524 67.8095H16V80.7619H28.9524V67.8095Z" fill="black"/>
<path d="M54.8571 67.8095H41.9048V80.7619H54.8571V67.8095Z" fill="black"/>
<path d="M67.8095 67.8095H54.8571V80.7619H67.8095V67.8095Z" fill="black"/>
<path d="M80.7619 67.8095H67.8095V80.7619H80.7619V67.8095Z" fill="black"/>
<path d="M106.667 67.8095H93.7143V80.7619H106.667V67.8095Z" fill="black"/>
<path d="M132.571 67.8095H119.619V80.7619H132.571L132.571 67.8095Z" fill="black"/>
<path d="M145.524 67.8095H132.571L132.571 80.7619H145.524V67.8095Z" fill="black"/>
<path d="M158.476 67.8095H145.524V80.7619H158.476V67.8095Z" fill="black"/>
<path d="M171.429 67.8095H158.476V80.7619H171.429V67.8095Z" fill="black"/>
<path d="M210.286 67.8095H197.333V80.7619H210.286V67.8095Z" fill="black"/>
<path d="M236.19 67.8095H223.238V80.7619H236.19V67.8095Z" fill="black"/>
<path d="M249.143 67.8095H236.19V80.7619H249.143V67.8095Z" fill="black"/>
<path d="M262.095 67.8095H249.143V80.7619H262.095V67.8095Z" fill="black"/>
<path d="M288 67.8095H275.048V80.7619H288V67.8095Z" fill="black"/>
<path d="M28.9524 80.7619H16V93.7143H28.9524V80.7619Z" fill="black"/>
<path d="M106.667 80.7619H93.7143V93.7143H106.667V80.7619Z" fill="black"/>
<path d="M210.286 80.7619H197.333V93.7143H210.286V80.7619Z" fill="black"/>
<path d="M288 80.7619H275.048V93.7143H288V80.7619Z" fill="black"/>
<path d="M28.9524 93.7143H16V106.667H28.9524V93.7143Z" fill="black"/>
<path d="M41.9048 93.7143H28.9524V106.667H41.9048V93.7143Z" fill="black"/>
<path d="M54.8571 93.7143H41.9048V106.667H54.8571V93.7143Z" fill="black"/>
<path d="M67.8095 93.7143H54.8571V106.667H67.8095V93.7143Z" fill="black"/>
<path d="M80.7619 93.7143H67.8095V106.667H80.7619V93.7143Z" fill="black"/>
<path d="M93.7143 93.7143H80.7619V106.667H93.7143V93.7143Z" fill="black"/>
<path d="M106.667 93.7143H93.7143V106.667H106.667V93.7143Z" fill="black"/>
<path d="M132.571 93.7143H119.619V106.667H132.571V93.7143Z" fill="black"/>
<path d="M158.476 93.7143H145.524V106.667H158.476V93.7143Z" fill="black"/>
<path d="M184.381 93.7143H171.429V106.667H184.381V93.7143Z" fill="black"/>
<path d="M210.286 93.7143H197.333V106.667H210.286V93.7143Z" fill="black"/>
<path d="M223.238 93.7143H210.286V106.667H223.238V93.7143Z" fill="black"/>
<path d="M236.19 93.7143H223.238V106.667H236.19V93.7143Z" fill="black"/>
<path d="M249.143 93.7143H236.19V106.667H249.143V93.7143Z" fill="black"/>
<path d="M262.095 93.7143H249.143V106.667H262.095V93.7143Z" fill="black"/>
<path d="M275.048 93.7143H262.095V106.667H275.048V93.7143Z" fill="black"/>
<path d="M288 93.7143H275.048V106.667H288V93.7143Z" fill="black"/>
<path d="M132.571 106.667H119.619V119.619H132.571V106.667Z" fill="black"/>
<path d="M145.524 106.667H132.571V119.619H145.524L145.524 106.667Z" fill="black"/>
<path d="M158.476 106.667H145.524L145.524 119.619H158.476V106.667Z" fill="black"/>
<path d="M28.9524 119.619H16V132.571H28.9524V119.619Z" fill="black"/>
<path d="M67.8095 119.619H54.8571V132.571H67.8095V119.619Z" fill="black"/>
<path d="M80.7619 119.619H67.8095V132.571H80.7619V119.619Z" fill="black"/>
<path d="M93.7143 119.619H80.7619V132.571H93.7143V119.619Z" fill="black"/>
<path d="M106.667 119.619H93.7143V132.571H106.667V119.619Z" fill="black"/>
<path d="M119.619 119.619L106.667 119.619V132.571H119.619L119.619 119.619Z" fill="black"/>
<path d="M132.571 119.619H119.619L119.619 132.571H132.571V119.619Z" fill="black"/>
<path d="M158.476 119.619H145.524L145.524 132.571H158.476V119.619Z" fill="black"/>
<path d="M184.381 119.619H171.429V132.571H184.381V119.619Z" fill="black"/>
<path d="M197.333 119.619H184.381V132.571H197.333V119.619Z" fill="black"/>
<path d="M210.286 119.619H197.333V132.571H210.286V119.619Z" fill="black"/>
<path d="M236.19 119.619H223.238V132.571H236.19V119.619Z" fill="black"/>
<path d="M288 119.619H275.048V132.571H288V119.619Z" fill="black"/>
<path d="M54.8571 132.571L41.9048 132.571V145.524H54.8571V132.571Z" fill="black"/>
<path d="M80.7619 132.571H67.8095V145.524H80.7619V132.571Z" fill="black"/>
<path d="M132.571 132.571H119.619L119.619 145.524H132.571V132.571Z" fill="black"/>
<path d="M158.476 132.571H145.524V145.524H158.476V132.571Z" fill="black"/>
<path d="M171.429 132.571H158.476V145.524H171.429V132.571Z" fill="black"/>
<path d="M184.381 132.571H171.429V145.524H184.381V132.571Z" fill="black"/>
<path d="M197.333 132.571H184.381V145.524H197.333V132.571Z" fill="black"/>
<path d="M210.286 132.571H197.333V145.524H210.286V132.571Z" fill="black"/>
<path d="M236.19 132.571H223.238V145.524H236.19V132.571Z" fill="black"/>
<path d="M28.9524 145.524H16V158.476H28.9524V145.524Z" fill="black"/>
<path d="M106.667 145.524H93.7143V158.476H106.667V145.524Z" fill="black"/>
<path d="M119.619 145.524L106.667 145.524V158.476H119.619L119.619 145.524Z" fill="black"/>
<path d="M132.571 145.524H119.619L119.619 158.476H132.571V145.524Z" fill="black"/>
<path d="M158.476 145.524H145.524V158.476H158.476V145.524Z" fill="black"/>
<path d="M223.238 145.524H210.286V158.476H223.238V145.524Z" fill="black"/>
<path d="M249.143 145.524L236.19 145.524V158.476H249.143V145.524Z" fill="black"/>
<path d="M262.095 145.524H249.143V158.476H262.095V145.524Z" fill="black"/>
<path d="M288 145.524H275.048V158.476H288V145.524Z" fill="black"/>
<path d="M67.8095 158.476H54.8571V171.429H67.8095V158.476Z" fill="black"/>
<path d="M80.7619 158.476H67.8095V171.429H80.7619V158.476Z" fill="black"/>
<path d="M171.429 158.476H158.476V171.429H171.429V158.476Z" fill="black"/>
<path d="M184.381 158.476H171.429V171.429H184.381V158.476Z" fill="black"/>
<path d="M197.333 158.476H184.381V171.429H197.333V158.476Z" fill="black"/>
<path d="M210.286 158.476H197.333V171.429H210.286V158.476Z" fill="black"/>
<path d="M275.048 158.476H262.095V171.429H275.048V158.476Z" fill="black"/>
<path d="M288 158.476H275.048V171.429H288V158.476Z" fill="black"/>
<path d="M28.9524 171.429H16V184.381H28.9524V171.429Z" fill="black"/>
<path d="M54.8571 171.429H41.9048V184.381H54.8571V171.429Z" fill="black"/>
<path d="M67.8095 171.429H54.8571V184.381H67.8095V171.429Z" fill="black"/>
<path d="M80.7619 171.429H67.8095V184.381H80.7619V171.429Z" fill="black"/>
<path d="M93.7143 171.429H80.7619V184.381H93.7143V171.429Z" fill="black"/>
<path d="M106.667 171.429H93.7143V184.381H106.667V171.429Z" fill="black"/>
<path d="M132.571 171.429H119.619V184.381H132.571V171.429Z" fill="black"/>
<path d="M145.524 171.429H132.571V184.381H145.524V171.429Z" fill="black"/>
<path d="M158.476 171.429H145.524V184.381H158.476V171.429Z" fill="black"/>
<path d="M171.429 171.429H158.476V184.381H171.429V171.429Z" fill="black"/>
<path d="M197.333 171.429H184.381V184.381H197.333V171.429Z" fill="black"/>
<path d="M236.19 171.429H223.238V184.381H236.19V171.429Z" fill="black"/>
<path d="M249.143 171.429H236.19V184.381H249.143V171.429Z" fill="black"/>
<path d="M262.095 171.429H249.143V184.381H262.095V171.429Z" fill="black"/>
<path d="M275.048 171.429H262.095V184.381H275.048V171.429Z" fill="black"/>
<path d="M132.571 184.381H119.619V197.333H132.571V184.381Z" fill="black"/>
<path d="M145.524 184.381H132.571V197.333H145.524V184.381Z" fill="black"/>
<path d="M158.476 184.381H145.524V197.333H158.476V184.381Z" fill="black"/>
<path d="M223.238 184.381H210.286V197.333H223.238V184.381Z" fill="black"/>
<path d="M236.19 184.381H223.238V197.333H236.19V184.381Z" fill="black"/>
<path d="M249.143 184.381H236.19V197.333H249.143V184.381Z" fill="black"/>
<path d="M262.095 184.381H249.143V197.333H262.095V184.381Z" fill="black"/>
<path d="M28.9524 197.333H16V210.286H28.9524V197.333Z" fill="black"/>
<path d="M41.9048 197.333H28.9524V210.286H41.9048V197.333Z" fill="black"/>
<path d="M54.8571 197.333H41.9048V210.286H54.8571V197.333Z" fill="black"/>
<path d="M67.8095 197.333H54.8571V210.286H67.8095V197.333Z" fill="black"/>
<path d="M80.7619 197.333H67.8095V210.286H80.7619V197.333Z" fill="black"/>
<path d="M93.7143 197.333H80.7619V210.286H93.7143V197.333Z" fill="black"/>
<path d="M106.667 197.333H93.7143V210.286H106.667V197.333Z" fill="black"/>
<path d="M132.571 197.333H119.619V210.286H132.571V197.333Z" fill="black"/>
<path d="M145.524 197.333H132.571V210.286H145.524V197.333Z" fill="black"/>
<path d="M184.381 197.333H171.429V210.286H184.381V197.333Z" fill="black"/>
<path d="M210.286 197.333H197.333V210.286H210.286V197.333Z" fill="black"/>
<path d="M223.238 197.333H210.286V210.286H223.238V197.333Z" fill="black"/>
<path d="M236.19 197.333H223.238V210.286H236.19V197.333Z" fill="black"/>
<path d="M249.143 197.333H236.19V210.286H249.143V197.333Z" fill="black"/>
<path d="M288 197.333H275.048V210.286H288V197.333Z" fill="black"/>
<path d="M28.9524 210.286H16V223.238H28.9524V210.286Z" fill="black"/>
<path d="M106.667 210.286H93.7143V223.238H106.667V210.286Z" fill="black"/>
<path d="M132.571 210.286H119.619V223.238H132.571V210.286Z" fill="black"/>
<path d="M171.429 210.286H158.476V223.238H171.429V210.286Z" fill="black"/>
<path d="M184.381 210.286H171.429V223.238H184.381V210.286Z" fill="black"/>
<path d="M210.286 210.286H197.333V223.238H210.286V210.286Z" fill="black"/>
<path d="M249.143 210.286H236.19V223.238H249.143V210.286Z" fill="black"/>
<path d="M275.048 210.286H262.095V223.238H275.048V210.286Z" fill="black"/>
<path d="M288 210.286H275.048V223.238H288V210.286Z" fill="black"/>
<path d="M28.9524 223.238H16V236.19H28.9524V223.238Z" fill="black"/>
<path d="M54.8571 223.238H41.9048V236.19H54.8571V223.238Z" fill="black"/>
<path d="M67.8095 223.238H54.8571V236.19H67.8095V223.238Z" fill="black"/>
<path d="M80.7619 223.238H67.8095V236.19H80.7619V223.238Z" fill="black"/>
<path d="M106.667 223.238H93.7143V236.19H106.667V223.238Z" fill="black"/>
<path d="M132.571 223.238H119.619V236.19H132.571V223.238Z" fill="black"/>
<path d="M184.381 223.238H171.429V236.19H184.381V223.238Z" fill="black"/>
<path d="M210.286 223.238H197.333V236.19H210.286V223.238Z" fill="black"/>
<path d="M223.238 223.238H210.286V236.19H223.238V223.238Z" fill="black"/>
<path d="M236.19 223.238H223.238V236.19H236.19V223.238Z" fill="black"/>
<path d="M249.143 223.238H236.19V236.19H249.143V223.238Z" fill="black"/>
<path d="M262.095 223.238H249.143V236.19H262.095V223.238Z" fill="black"/>
<path d="M275.048 223.238H262.095V236.19H275.048V223.238Z" fill="black"/>
<path d="M28.9524 236.19H16V249.143H28.9524V236.19Z" fill="black"/>
<path d="M54.8571 236.19H41.9048V249.143H54.8571V236.19Z" fill="black"/>
<path d="M67.8095 236.19H54.8571V249.143H67.8095V236.19Z" fill="black"/>
<path d="M80.7619 236.19H67.8095V249.143H80.7619V236.19Z" fill="black"/>
<path d="M106.667 236.19H93.7143V249.143H106.667V236.19Z" fill="black"/>
<path d="M132.571 236.19H119.619V249.143H132.571V236.19Z" fill="black"/>
<path d="M145.524 236.19H132.571V249.143H145.524V236.19Z" fill="black"/>
<path d="M197.333 236.19H184.381V249.143H197.333V236.19Z" fill="black"/>
<path d="M236.19 236.19H223.238V249.143H236.19V236.19Z" fill="black"/>
<path d="M262.095 236.19H249.143V249.143H262.095V236.19Z" fill="black"/>
<path d="M288 236.19H275.048V249.143H288V236.19Z" fill="black"/>
<path d="M28.9524 249.143H16V262.095H28.9524V249.143Z" fill="black"/>
<path d="M54.8571 249.143H41.9048V262.095H54.8571V249.143Z" fill="black"/>
<path d="M67.8095 249.143H54.8571V262.095H67.8095V249.143Z" fill="black"/>
<path d="M80.7619 249.143H67.8095V262.095H80.7619V249.143Z" fill="black"/>
<path d="M106.667 249.143H93.7143V262.095H106.667V249.143Z" fill="black"/>
<path d="M145.524 249.143H132.571L132.571 262.095H145.524V249.143Z" fill="black"/>
<path d="M158.476 249.143H145.524V262.095H158.476V249.143Z" fill="black"/>
<path d="M197.333 249.143H184.381V262.095H197.333V249.143Z" fill="black"/>
<path d="M249.143 249.143H236.19V262.095H249.143V249.143Z" fill="black"/>
<path d="M262.095 249.143H249.143V262.095H262.095V249.143Z" fill="black"/>
<path d="M28.9524 262.095H16V275.048H28.9524V262.095Z" fill="black"/>
<path d="M106.667 262.095H93.7143V275.048H106.667V262.095Z" fill="black"/>
<path d="M158.476 262.095H145.524L145.524 275.048H158.476V262.095Z" fill="black"/>
<path d="M171.429 262.095H158.476V275.048H171.429V262.095Z" fill="black"/>
<path d="M184.381 262.095H171.429V275.048H184.381V262.095Z" fill="black"/>
<path d="M210.286 262.095H197.333V275.048H210.286V262.095Z" fill="black"/>
<path d="M249.143 262.095H236.19V275.048H249.143V262.095Z" fill="black"/>
<path d="M28.9524 275.048H16V288H28.9524V275.048Z" fill="black"/>
<path d="M41.9048 275.048H28.9524V288H41.9048V275.048Z" fill="black"/>
<path d="M54.8571 275.048H41.9048V288H54.8571V275.048Z" fill="black"/>
<path d="M67.8095 275.048H54.8571V288H67.8095V275.048Z" fill="black"/>
<path d="M80.7619 275.048H67.8095V288H80.7619V275.048Z" fill="black"/>
<path d="M93.7143 275.048H80.7619V288H93.7143V275.048Z" fill="black"/>
<path d="M106.667 275.048H93.7143V288H106.667V275.048Z" fill="black"/>
<path d="M132.571 275.048H119.619V288H132.571V275.048Z" fill="black"/>
<path d="M184.381 275.048H171.429V288H184.381V275.048Z" fill="black"/>
<path d="M223.238 275.048H210.286V288H223.238V275.048Z" fill="black"/>
<path d="M236.19 275.048H223.238V288H236.19V275.048Z" fill="black"/>
<path d="M249.143 275.048H236.19V288H249.143V275.048Z" fill="black"/>
<path d="M288 275.048H275.048V288H288V275.048Z" fill="black"/>
</svg>
